<mxfile host="app.diagrams.net" modified="2022-03-06T08:54:09.020Z" agent="5.0 (Windows NT 10.0; Win64; x64) AppleWebKit/537.36 (KHTML, like Gecko) Chrome/99.0.4844.51 Safari/537.36" etag="v_J3qnHYkmLsHWSmDBNS" version="16.6.6" type="github">
  <diagram id="dGK5xZqpM7XCNRweWZIY" name="Page-1">
    <mxGraphModel dx="1278" dy="547" grid="1" gridSize="10" guides="1" tooltips="1" connect="1" arrows="1" fold="1" page="1" pageScale="1" pageWidth="850" pageHeight="1100" math="0" shadow="0">
      <root>
        <mxCell id="0" />
        <mxCell id="1" parent="0" />
        <mxCell id="s2iLsqbhEoJUC6y4_RUH-1" value="AWS Cloud" style="points=[[0,0],[0.25,0],[0.5,0],[0.75,0],[1,0],[1,0.25],[1,0.5],[1,0.75],[1,1],[0.75,1],[0.5,1],[0.25,1],[0,1],[0,0.75],[0,0.5],[0,0.25]];outlineConnect=0;gradientColor=none;html=1;whiteSpace=wrap;fontSize=12;fontStyle=0;container=1;pointerEvents=0;collapsible=0;recursiveResize=0;shape=mxgraph.aws4.group;grIcon=mxgraph.aws4.group_aws_cloud_alt;strokeColor=#232F3E;fillColor=none;verticalAlign=top;align=left;spacingLeft=30;fontColor=#232F3E;dashed=0;" parent="1" vertex="1">
          <mxGeometry x="66" y="210" width="799" height="550" as="geometry" />
        </mxCell>
        <mxCell id="s2iLsqbhEoJUC6y4_RUH-2" value="Region" style="points=[[0,0],[0.25,0],[0.5,0],[0.75,0],[1,0],[1,0.25],[1,0.5],[1,0.75],[1,1],[0.75,1],[0.5,1],[0.25,1],[0,1],[0,0.75],[0,0.5],[0,0.25]];outlineConnect=0;gradientColor=none;html=1;whiteSpace=wrap;fontSize=12;fontStyle=0;container=1;pointerEvents=0;collapsible=0;recursiveResize=0;shape=mxgraph.aws4.group;grIcon=mxgraph.aws4.group_region;strokeColor=#147EBA;fillColor=none;verticalAlign=top;align=left;spacingLeft=30;fontColor=#147EBA;dashed=1;" parent="1" vertex="1">
          <mxGeometry x="99" y="250" width="740" height="490" as="geometry" />
        </mxCell>
        <mxCell id="s2iLsqbhEoJUC6y4_RUH-9" value="" style="sketch=0;points=[[0,0,0],[0.25,0,0],[0.5,0,0],[0.75,0,0],[1,0,0],[0,1,0],[0.25,1,0],[0.5,1,0],[0.75,1,0],[1,1,0],[0,0.25,0],[0,0.5,0],[0,0.75,0],[1,0.25,0],[1,0.5,0],[1,0.75,0]];outlineConnect=0;fontColor=#232F3E;gradientColor=#945DF2;gradientDirection=north;fillColor=#5A30B5;strokeColor=#ffffff;dashed=0;verticalLabelPosition=bottom;verticalAlign=top;align=center;html=1;fontSize=12;fontStyle=0;aspect=fixed;shape=mxgraph.aws4.resourceIcon;resIcon=mxgraph.aws4.kinesis_data_firehose;" parent="s2iLsqbhEoJUC6y4_RUH-2" vertex="1">
          <mxGeometry x="99" y="110" width="40" height="40" as="geometry" />
        </mxCell>
        <mxCell id="s2iLsqbhEoJUC6y4_RUH-8" value="" style="sketch=0;points=[[0,0,0],[0.25,0,0],[0.5,0,0],[0.75,0,0],[1,0,0],[0,1,0],[0.25,1,0],[0.5,1,0],[0.75,1,0],[1,1,0],[0,0.25,0],[0,0.5,0],[0,0.75,0],[1,0.25,0],[1,0.5,0],[1,0.75,0]];outlineConnect=0;fontColor=#232F3E;gradientColor=#945DF2;gradientDirection=north;fillColor=#5A30B5;strokeColor=#ffffff;dashed=0;verticalLabelPosition=bottom;verticalAlign=top;align=center;html=1;fontSize=12;fontStyle=0;aspect=fixed;shape=mxgraph.aws4.resourceIcon;resIcon=mxgraph.aws4.kinesis_data_streams;" parent="s2iLsqbhEoJUC6y4_RUH-2" vertex="1">
          <mxGeometry x="200.5" y="415" width="40" height="40" as="geometry" />
        </mxCell>
        <mxCell id="s2iLsqbhEoJUC6y4_RUH-11" value="" style="sketch=0;points=[[0,0,0],[0.25,0,0],[0.5,0,0],[0.75,0,0],[1,0,0],[0,1,0],[0.25,1,0],[0.5,1,0],[0.75,1,0],[1,1,0],[0,0.25,0],[0,0.5,0],[0,0.75,0],[1,0.25,0],[1,0.5,0],[1,0.75,0]];outlineConnect=0;fontColor=#232F3E;gradientColor=#945DF2;gradientDirection=north;fillColor=#5A30B5;strokeColor=#ffffff;dashed=0;verticalLabelPosition=bottom;verticalAlign=top;align=center;html=1;fontSize=12;fontStyle=0;aspect=fixed;shape=mxgraph.aws4.resourceIcon;resIcon=mxgraph.aws4.api_gateway;" parent="s2iLsqbhEoJUC6y4_RUH-2" vertex="1">
          <mxGeometry x="20" y="231" width="40" height="40" as="geometry" />
        </mxCell>
        <mxCell id="s2iLsqbhEoJUC6y4_RUH-15" value="" style="sketch=0;points=[[0,0,0],[0.25,0,0],[0.5,0,0],[0.75,0,0],[1,0,0],[0,1,0],[0.25,1,0],[0.5,1,0],[0.75,1,0],[1,1,0],[0,0.25,0],[0,0.5,0],[0,0.75,0],[1,0.25,0],[1,0.5,0],[1,0.75,0]];outlineConnect=0;fontColor=#232F3E;gradientColor=#945DF2;gradientDirection=north;fillColor=#5A30B5;strokeColor=#ffffff;dashed=0;verticalLabelPosition=bottom;verticalAlign=top;align=center;html=1;fontSize=12;fontStyle=0;aspect=fixed;shape=mxgraph.aws4.resourceIcon;resIcon=mxgraph.aws4.glue;" parent="s2iLsqbhEoJUC6y4_RUH-2" vertex="1">
          <mxGeometry x="259" y="10" width="40" height="40" as="geometry" />
        </mxCell>
        <mxCell id="s2iLsqbhEoJUC6y4_RUH-16" value="" style="sketch=0;points=[[0,0,0],[0.25,0,0],[0.5,0,0],[0.75,0,0],[1,0,0],[0,1,0],[0.25,1,0],[0.5,1,0],[0.75,1,0],[1,1,0],[0,0.25,0],[0,0.5,0],[0,0.75,0],[1,0.25,0],[1,0.5,0],[1,0.75,0]];outlineConnect=0;fontColor=#232F3E;gradientColor=#945DF2;gradientDirection=north;fillColor=#5A30B5;strokeColor=#ffffff;dashed=0;verticalLabelPosition=bottom;verticalAlign=top;align=center;html=1;fontSize=12;fontStyle=0;aspect=fixed;shape=mxgraph.aws4.resourceIcon;resIcon=mxgraph.aws4.athena;" parent="s2iLsqbhEoJUC6y4_RUH-2" vertex="1">
          <mxGeometry x="350" y="10" width="39" height="39" as="geometry" />
        </mxCell>
        <mxCell id="HMBIdSZYqoNYSO5b0g_p-14" value="" style="edgeStyle=orthogonalEdgeStyle;rounded=0;orthogonalLoop=1;jettySize=auto;html=1;entryX=0.5;entryY=0;entryDx=0;entryDy=0;entryPerimeter=0;" parent="s2iLsqbhEoJUC6y4_RUH-2" source="s2iLsqbhEoJUC6y4_RUH-18" target="s2iLsqbhEoJUC6y4_RUH-20" edge="1">
          <mxGeometry relative="1" as="geometry" />
        </mxCell>
        <mxCell id="s2iLsqbhEoJUC6y4_RUH-18" value="" style="sketch=0;points=[[0,0,0],[0.25,0,0],[0.5,0,0],[0.75,0,0],[1,0,0],[0,1,0],[0.25,1,0],[0.5,1,0],[0.75,1,0],[1,1,0],[0,0.25,0],[0,0.5,0],[0,0.75,0],[1,0.25,0],[1,0.5,0],[1,0.75,0]];outlineConnect=0;fontColor=#232F3E;gradientColor=#4D72F3;gradientDirection=north;fillColor=#3334B9;strokeColor=#ffffff;dashed=0;verticalLabelPosition=bottom;verticalAlign=top;align=center;html=1;fontSize=12;fontStyle=0;aspect=fixed;shape=mxgraph.aws4.resourceIcon;resIcon=mxgraph.aws4.redshift;" parent="s2iLsqbhEoJUC6y4_RUH-2" vertex="1">
          <mxGeometry x="518" y="110" width="40" height="40" as="geometry" />
        </mxCell>
        <mxCell id="s2iLsqbhEoJUC6y4_RUH-19" value="" style="sketch=0;points=[[0,0,0],[0.25,0,0],[0.5,0,0],[0.75,0,0],[1,0,0],[0,1,0],[0.25,1,0],[0.5,1,0],[0.75,1,0],[1,1,0],[0,0.25,0],[0,0.5,0],[0,0.75,0],[1,0.25,0],[1,0.5,0],[1,0.75,0]];outlineConnect=0;fontColor=#232F3E;gradientColor=#60A337;gradientDirection=north;fillColor=#277116;strokeColor=#ffffff;dashed=0;verticalLabelPosition=bottom;verticalAlign=top;align=center;html=1;fontSize=12;fontStyle=0;aspect=fixed;shape=mxgraph.aws4.resourceIcon;resIcon=mxgraph.aws4.s3;" parent="s2iLsqbhEoJUC6y4_RUH-2" vertex="1">
          <mxGeometry x="299" y="109.5" width="40" height="40" as="geometry" />
        </mxCell>
        <mxCell id="HMBIdSZYqoNYSO5b0g_p-13" value="" style="edgeStyle=orthogonalEdgeStyle;rounded=0;orthogonalLoop=1;jettySize=auto;html=1;" parent="s2iLsqbhEoJUC6y4_RUH-2" source="s2iLsqbhEoJUC6y4_RUH-20" target="s2iLsqbhEoJUC6y4_RUH-21" edge="1">
          <mxGeometry relative="1" as="geometry" />
        </mxCell>
        <mxCell id="s2iLsqbhEoJUC6y4_RUH-21" value="" style="sketch=0;points=[[0,0,0],[0.25,0,0],[0.5,0,0],[0.75,0,0],[1,0,0],[0,1,0],[0.25,1,0],[0.5,1,0],[0.75,1,0],[1,1,0],[0,0.25,0],[0,0.5,0],[0,0.75,0],[1,0.25,0],[1,0.5,0],[1,0.75,0]];outlineConnect=0;fontColor=#232F3E;gradientColor=#945DF2;gradientDirection=north;fillColor=#5A30B5;strokeColor=#ffffff;dashed=0;verticalLabelPosition=bottom;verticalAlign=top;align=center;html=1;fontSize=12;fontStyle=0;aspect=fixed;shape=mxgraph.aws4.resourceIcon;resIcon=mxgraph.aws4.quicksight;" parent="s2iLsqbhEoJUC6y4_RUH-2" vertex="1">
          <mxGeometry x="641" y="231" width="40" height="40" as="geometry" />
        </mxCell>
        <mxCell id="s2iLsqbhEoJUC6y4_RUH-30" value="" style="sketch=0;points=[[0,0,0],[0.25,0,0],[0.5,0,0],[0.75,0,0],[1,0,0],[0,1,0],[0.25,1,0],[0.5,1,0],[0.75,1,0],[1,1,0],[0,0.25,0],[0,0.5,0],[0,0.75,0],[1,0.25,0],[1,0.5,0],[1,0.75,0]];outlineConnect=0;fontColor=#232F3E;gradientColor=#945DF2;gradientDirection=north;fillColor=#5A30B5;strokeColor=#ffffff;dashed=0;verticalLabelPosition=bottom;verticalAlign=top;align=center;html=1;fontSize=12;fontStyle=0;aspect=fixed;shape=mxgraph.aws4.resourceIcon;resIcon=mxgraph.aws4.kinesis_data_analytics;" parent="s2iLsqbhEoJUC6y4_RUH-2" vertex="1">
          <mxGeometry x="447" y="415" width="40" height="40" as="geometry" />
        </mxCell>
        <mxCell id="s2iLsqbhEoJUC6y4_RUH-31" value="" style="sketch=0;points=[[0,0,0],[0.25,0,0],[0.5,0,0],[0.75,0,0],[1,0,0],[0,1,0],[0.25,1,0],[0.5,1,0],[0.75,1,0],[1,1,0],[0,0.25,0],[0,0.5,0],[0,0.75,0],[1,0.25,0],[1,0.5,0],[1,0.75,0]];outlineConnect=0;fontColor=#232F3E;gradientColor=#FF4F8B;gradientDirection=north;fillColor=#BC1356;strokeColor=#ffffff;dashed=0;verticalLabelPosition=bottom;verticalAlign=top;align=center;html=1;fontSize=12;fontStyle=0;aspect=fixed;shape=mxgraph.aws4.resourceIcon;resIcon=mxgraph.aws4.eventbridge;" parent="s2iLsqbhEoJUC6y4_RUH-2" vertex="1">
          <mxGeometry x="398" y="108.5" width="41.5" height="41.5" as="geometry" />
        </mxCell>
        <mxCell id="9eLovBIwxHbZl7EOSkrw-1" value="" style="edgeStyle=orthogonalEdgeStyle;html=1;endArrow=block;elbow=vertical;startArrow=none;endFill=1;strokeColor=#545B64;rounded=0;entryX=0;entryY=0.5;entryDx=0;entryDy=0;entryPerimeter=0;exitX=0.5;exitY=0;exitDx=0;exitDy=0;exitPerimeter=0;" parent="s2iLsqbhEoJUC6y4_RUH-2" source="s2iLsqbhEoJUC6y4_RUH-11" target="s2iLsqbhEoJUC6y4_RUH-9" edge="1">
          <mxGeometry width="100" relative="1" as="geometry">
            <mxPoint x="-60" y="-120" as="sourcePoint" />
            <mxPoint x="140" y="380" as="targetPoint" />
          </mxGeometry>
        </mxCell>
        <mxCell id="9eLovBIwxHbZl7EOSkrw-6" value="" style="edgeStyle=orthogonalEdgeStyle;html=1;endArrow=block;elbow=vertical;startArrow=none;endFill=1;strokeColor=#545B64;rounded=0;exitX=1;exitY=0.5;exitDx=0;exitDy=0;exitPerimeter=0;" parent="s2iLsqbhEoJUC6y4_RUH-2" source="s2iLsqbhEoJUC6y4_RUH-31" edge="1">
          <mxGeometry width="100" relative="1" as="geometry">
            <mxPoint x="478" y="130" as="sourcePoint" />
            <mxPoint x="518" y="130" as="targetPoint" />
          </mxGeometry>
        </mxCell>
        <mxCell id="9eLovBIwxHbZl7EOSkrw-12" value="" style="edgeStyle=orthogonalEdgeStyle;html=1;endArrow=block;elbow=vertical;startArrow=none;endFill=1;strokeColor=#545B64;rounded=0;exitX=1;exitY=0.5;exitDx=0;exitDy=0;exitPerimeter=0;entryX=0;entryY=0.5;entryDx=0;entryDy=0;entryPerimeter=0;" parent="s2iLsqbhEoJUC6y4_RUH-2" source="s2iLsqbhEoJUC6y4_RUH-8" edge="1" target="s2iLsqbhEoJUC6y4_RUH-30">
          <mxGeometry width="100" relative="1" as="geometry">
            <mxPoint x="319" y="435" as="sourcePoint" />
            <mxPoint x="359" y="435" as="targetPoint" />
          </mxGeometry>
        </mxCell>
        <mxCell id="9eLovBIwxHbZl7EOSkrw-20" value="&lt;font style=&quot;font-size: 18px&quot;&gt;Glue&lt;/font&gt;" style="text;strokeColor=none;fillColor=none;html=1;fontSize=20;fontStyle=1;verticalAlign=middle;align=center;" parent="s2iLsqbhEoJUC6y4_RUH-2" vertex="1">
          <mxGeometry x="170.5" y="19.5" width="100" height="20" as="geometry" />
        </mxCell>
        <mxCell id="fpjOU6GNy4gnwpdHoLkg-1" value="" style="edgeStyle=orthogonalEdgeStyle;html=1;endArrow=block;elbow=vertical;startArrow=none;endFill=1;strokeColor=#545B64;rounded=0;entryX=0;entryY=0.5;entryDx=0;entryDy=0;entryPerimeter=0;exitX=1;exitY=0.5;exitDx=0;exitDy=0;exitPerimeter=0;" parent="s2iLsqbhEoJUC6y4_RUH-2" source="s2iLsqbhEoJUC6y4_RUH-15" target="s2iLsqbhEoJUC6y4_RUH-16" edge="1">
          <mxGeometry width="100" relative="1" as="geometry">
            <mxPoint x="339" y="30" as="sourcePoint" />
            <mxPoint x="379" y="29.5" as="targetPoint" />
          </mxGeometry>
        </mxCell>
        <mxCell id="fpjOU6GNy4gnwpdHoLkg-2" value="&lt;font style=&quot;font-size: 18px&quot;&gt;Athena&lt;/font&gt;" style="text;strokeColor=none;fillColor=none;html=1;fontSize=20;fontStyle=1;verticalAlign=middle;align=center;" parent="s2iLsqbhEoJUC6y4_RUH-2" vertex="1">
          <mxGeometry x="388" y="49" width="100" height="20" as="geometry" />
        </mxCell>
        <mxCell id="fpjOU6GNy4gnwpdHoLkg-4" value="&lt;font style=&quot;font-size: 18px&quot;&gt;Redshift&lt;/font&gt;" style="text;strokeColor=none;fillColor=none;html=1;fontSize=20;fontStyle=1;verticalAlign=middle;align=center;" parent="s2iLsqbhEoJUC6y4_RUH-2" vertex="1">
          <mxGeometry x="488" y="81" width="100" height="20" as="geometry" />
        </mxCell>
        <mxCell id="fpjOU6GNy4gnwpdHoLkg-6" value="" style="edgeStyle=orthogonalEdgeStyle;html=1;endArrow=block;elbow=vertical;startArrow=none;endFill=1;strokeColor=#545B64;rounded=0;exitX=1;exitY=0.5;exitDx=0;exitDy=0;exitPerimeter=0;entryX=0;entryY=0.5;entryDx=0;entryDy=0;entryPerimeter=0;" parent="s2iLsqbhEoJUC6y4_RUH-2" source="s2iLsqbhEoJUC6y4_RUH-19" target="s2iLsqbhEoJUC6y4_RUH-31" edge="1">
          <mxGeometry width="100" relative="1" as="geometry">
            <mxPoint x="247" y="140" as="sourcePoint" />
            <mxPoint x="287" y="140" as="targetPoint" />
          </mxGeometry>
        </mxCell>
        <mxCell id="fpjOU6GNy4gnwpdHoLkg-7" value="" style="edgeStyle=orthogonalEdgeStyle;html=1;endArrow=block;elbow=vertical;startArrow=block;startFill=1;endFill=1;strokeColor=#545B64;rounded=0;exitX=0.5;exitY=1;exitDx=0;exitDy=0;exitPerimeter=0;entryX=0.5;entryY=0;entryDx=0;entryDy=0;entryPerimeter=0;" parent="s2iLsqbhEoJUC6y4_RUH-2" source="s2iLsqbhEoJUC6y4_RUH-15" target="s2iLsqbhEoJUC6y4_RUH-19" edge="1">
          <mxGeometry width="100" relative="1" as="geometry">
            <mxPoint x="279" y="70" as="sourcePoint" />
            <mxPoint x="379" y="70" as="targetPoint" />
            <Array as="points">
              <mxPoint x="279" y="70" />
              <mxPoint x="319" y="70" />
            </Array>
          </mxGeometry>
        </mxCell>
        <mxCell id="fpjOU6GNy4gnwpdHoLkg-8" value="" style="edgeStyle=orthogonalEdgeStyle;html=1;endArrow=block;elbow=vertical;startArrow=block;startFill=1;endFill=1;strokeColor=#545B64;rounded=0;exitX=0.5;exitY=1;exitDx=0;exitDy=0;exitPerimeter=0;entryX=0.5;entryY=0;entryDx=0;entryDy=0;entryPerimeter=0;" parent="s2iLsqbhEoJUC6y4_RUH-2" source="s2iLsqbhEoJUC6y4_RUH-16" target="s2iLsqbhEoJUC6y4_RUH-19" edge="1">
          <mxGeometry width="100" relative="1" as="geometry">
            <mxPoint x="369" y="70" as="sourcePoint" />
            <mxPoint x="469" y="70" as="targetPoint" />
            <Array as="points">
              <mxPoint x="370" y="70" />
              <mxPoint x="319" y="70" />
            </Array>
          </mxGeometry>
        </mxCell>
        <mxCell id="fpjOU6GNy4gnwpdHoLkg-9" value="&lt;font style=&quot;font-size: 18px&quot;&gt;EventBridge&lt;/font&gt;" style="text;strokeColor=none;fillColor=none;html=1;fontSize=20;fontStyle=1;verticalAlign=middle;align=center;" parent="s2iLsqbhEoJUC6y4_RUH-2" vertex="1">
          <mxGeometry x="374" y="160" width="100" height="20" as="geometry" />
        </mxCell>
        <mxCell id="HMBIdSZYqoNYSO5b0g_p-6" value="&lt;font style=&quot;font-size: 18px&quot;&gt;Firehouse&lt;/font&gt;" style="text;strokeColor=none;fillColor=none;html=1;fontSize=20;fontStyle=1;verticalAlign=middle;align=center;" parent="s2iLsqbhEoJUC6y4_RUH-2" vertex="1">
          <mxGeometry x="70" y="160" width="99" height="20" as="geometry" />
        </mxCell>
        <mxCell id="HMBIdSZYqoNYSO5b0g_p-7" value="&lt;font style=&quot;font-size: 18px&quot;&gt;S3&lt;/font&gt;" style="text;strokeColor=none;fillColor=none;html=1;fontSize=20;fontStyle=1;verticalAlign=middle;align=center;" parent="s2iLsqbhEoJUC6y4_RUH-2" vertex="1">
          <mxGeometry x="269" y="160" width="100" height="20" as="geometry" />
        </mxCell>
        <mxCell id="HMBIdSZYqoNYSO5b0g_p-9" value="&lt;font style=&quot;font-size: 18px&quot;&gt;Kinesis Stream&lt;/font&gt;" style="text;strokeColor=none;fillColor=none;html=1;fontSize=20;fontStyle=1;verticalAlign=middle;align=center;" parent="s2iLsqbhEoJUC6y4_RUH-2" vertex="1">
          <mxGeometry x="169" y="465" width="100" height="20" as="geometry" />
        </mxCell>
        <mxCell id="HMBIdSZYqoNYSO5b0g_p-10" value="&lt;font style=&quot;font-size: 18px&quot;&gt;Kinesis Analytics&lt;/font&gt;" style="text;strokeColor=none;fillColor=none;html=1;fontSize=20;fontStyle=1;verticalAlign=middle;align=center;" parent="s2iLsqbhEoJUC6y4_RUH-2" vertex="1">
          <mxGeometry x="417" y="464" width="100" height="20" as="geometry" />
        </mxCell>
        <mxCell id="HMBIdSZYqoNYSO5b0g_p-11" value="&lt;font style=&quot;font-size: 18px&quot;&gt;API Gateway&lt;/font&gt;" style="text;strokeColor=none;fillColor=none;html=1;fontSize=20;fontStyle=1;verticalAlign=middle;align=center;" parent="s2iLsqbhEoJUC6y4_RUH-2" vertex="1">
          <mxGeometry x="52" y="271" width="100" height="20" as="geometry" />
        </mxCell>
        <mxCell id="s2iLsqbhEoJUC6y4_RUH-20" value="" style="sketch=0;points=[[0,0,0],[0.25,0,0],[0.5,0,0],[0.75,0,0],[1,0,0],[0,1,0],[0.25,1,0],[0.5,1,0],[0.75,1,0],[1,1,0],[0,0.25,0],[0,0.5,0],[0,0.75,0],[1,0.25,0],[1,0.5,0],[1,0.75,0]];outlineConnect=0;fontColor=#232F3E;gradientColor=#4AB29A;gradientDirection=north;fillColor=#116D5B;strokeColor=#ffffff;dashed=0;verticalLabelPosition=bottom;verticalAlign=top;align=center;html=1;fontSize=12;fontStyle=0;aspect=fixed;shape=mxgraph.aws4.resourceIcon;resIcon=mxgraph.aws4.sagemaker;" parent="s2iLsqbhEoJUC6y4_RUH-2" vertex="1">
          <mxGeometry x="518" y="231" width="40" height="40" as="geometry" />
        </mxCell>
        <mxCell id="HMBIdSZYqoNYSO5b0g_p-26" value="" style="endArrow=classic;html=1;rounded=0;entryX=0.5;entryY=1;entryDx=0;entryDy=0;entryPerimeter=0;exitX=1;exitY=0.5;exitDx=0;exitDy=0;exitPerimeter=0;" parent="s2iLsqbhEoJUC6y4_RUH-2" source="s2iLsqbhEoJUC6y4_RUH-30" target="s2iLsqbhEoJUC6y4_RUH-21" edge="1">
          <mxGeometry width="50" height="50" relative="1" as="geometry">
            <mxPoint x="340" y="330" as="sourcePoint" />
            <mxPoint x="390" y="280" as="targetPoint" />
            <Array as="points">
              <mxPoint x="661" y="435" />
            </Array>
          </mxGeometry>
        </mxCell>
        <mxCell id="HMBIdSZYqoNYSO5b0g_p-30" value="" style="endArrow=classic;html=1;rounded=0;entryX=0;entryY=0.5;entryDx=0;entryDy=0;entryPerimeter=0;exitX=0.5;exitY=1;exitDx=0;exitDy=0;exitPerimeter=0;" parent="s2iLsqbhEoJUC6y4_RUH-2" source="s2iLsqbhEoJUC6y4_RUH-11" target="s2iLsqbhEoJUC6y4_RUH-8" edge="1">
          <mxGeometry width="50" height="50" relative="1" as="geometry">
            <mxPoint x="340" y="330" as="sourcePoint" />
            <mxPoint x="390" y="280" as="targetPoint" />
            <Array as="points">
              <mxPoint x="40" y="435" />
            </Array>
          </mxGeometry>
        </mxCell>
        <mxCell id="HMBIdSZYqoNYSO5b0g_p-15" value="&lt;font style=&quot;font-size: 18px&quot;&gt;Cloudwatch&lt;/font&gt;" style="text;strokeColor=none;fillColor=none;html=1;fontSize=20;fontStyle=1;verticalAlign=middle;align=center;" parent="s2iLsqbhEoJUC6y4_RUH-2" vertex="1">
          <mxGeometry x="319" y="345" width="100" height="20" as="geometry" />
        </mxCell>
        <mxCell id="HMBIdSZYqoNYSO5b0g_p-18" value="" style="swimlane;startSize=0;dashed=1;" parent="s2iLsqbhEoJUC6y4_RUH-2" vertex="1">
          <mxGeometry x="306" y="290" width="130" height="80" as="geometry">
            <mxRectangle x="220" y="290" width="50" height="40" as="alternateBounds" />
          </mxGeometry>
        </mxCell>
        <mxCell id="s2iLsqbhEoJUC6y4_RUH-33" value="" style="outlineConnect=0;dashed=0;verticalLabelPosition=bottom;verticalAlign=top;align=center;html=1;shape=mxgraph.aws3.cloudwatch;fillColor=#759C3E;gradientColor=none;" parent="HMBIdSZYqoNYSO5b0g_p-18" vertex="1">
          <mxGeometry x="43" y="15" width="40" height="40" as="geometry" />
        </mxCell>
        <mxCell id="HMBIdSZYqoNYSO5b0g_p-32" value="" style="endArrow=classic;html=1;rounded=0;entryX=0.5;entryY=0;entryDx=0;entryDy=0;entryPerimeter=0;exitX=1;exitY=0.5;exitDx=0;exitDy=0;exitPerimeter=0;" parent="s2iLsqbhEoJUC6y4_RUH-2" source="s2iLsqbhEoJUC6y4_RUH-18" target="s2iLsqbhEoJUC6y4_RUH-21" edge="1">
          <mxGeometry width="50" height="50" relative="1" as="geometry">
            <mxPoint x="290" y="330" as="sourcePoint" />
            <mxPoint x="340" y="280" as="targetPoint" />
            <Array as="points">
              <mxPoint x="661" y="130" />
            </Array>
          </mxGeometry>
        </mxCell>
        <mxCell id="HMBIdSZYqoNYSO5b0g_p-33" value="" style="endArrow=classic;html=1;rounded=0;exitX=1;exitY=0.5;exitDx=0;exitDy=0;exitPerimeter=0;entryX=0;entryY=0.5;entryDx=0;entryDy=0;entryPerimeter=0;" parent="s2iLsqbhEoJUC6y4_RUH-2" source="s2iLsqbhEoJUC6y4_RUH-9" target="s2iLsqbhEoJUC6y4_RUH-19" edge="1">
          <mxGeometry width="50" height="50" relative="1" as="geometry">
            <mxPoint x="290" y="220" as="sourcePoint" />
            <mxPoint x="340" y="170" as="targetPoint" />
          </mxGeometry>
        </mxCell>
        <mxCell id="HMBIdSZYqoNYSO5b0g_p-34" value="&lt;font style=&quot;font-size: 18px&quot;&gt;Sagemaker&lt;/font&gt;" style="text;strokeColor=none;fillColor=none;html=1;fontSize=20;fontStyle=1;verticalAlign=middle;align=center;" parent="s2iLsqbhEoJUC6y4_RUH-2" vertex="1">
          <mxGeometry x="431" y="207" width="100" height="20" as="geometry" />
        </mxCell>
        <mxCell id="HMBIdSZYqoNYSO5b0g_p-35" value="&lt;font style=&quot;font-size: 18px&quot;&gt;QuickSight&lt;/font&gt;" style="text;strokeColor=none;fillColor=none;html=1;fontSize=20;fontStyle=1;verticalAlign=middle;align=center;" parent="s2iLsqbhEoJUC6y4_RUH-2" vertex="1">
          <mxGeometry x="558" y="270" width="100" height="20" as="geometry" />
        </mxCell>
        <mxCell id="jgbXGi7hfd4va_pr6LZk-4" value="" style="sketch=0;points=[[0,0,0],[0.25,0,0],[0.5,0,0],[0.75,0,0],[1,0,0],[0,1,0],[0.25,1,0],[0.5,1,0],[0.75,1,0],[1,1,0],[0,0.25,0],[0,0.5,0],[0,0.75,0],[1,0.25,0],[1,0.5,0],[1,0.75,0]];outlineConnect=0;fontColor=#232F3E;gradientColor=#F78E04;gradientDirection=north;fillColor=#D05C17;strokeColor=#ffffff;dashed=0;verticalLabelPosition=bottom;verticalAlign=top;align=center;html=1;fontSize=12;fontStyle=0;aspect=fixed;shape=mxgraph.aws4.resourceIcon;resIcon=mxgraph.aws4.lambda;" vertex="1" parent="s2iLsqbhEoJUC6y4_RUH-2">
          <mxGeometry x="220" y="231" width="40" height="40" as="geometry" />
        </mxCell>
        <mxCell id="jgbXGi7hfd4va_pr6LZk-7" value="" style="edgeStyle=orthogonalEdgeStyle;html=1;endArrow=block;elbow=vertical;startArrow=block;startFill=1;endFill=1;strokeColor=#545B64;rounded=0;exitX=1;exitY=0.5;exitDx=0;exitDy=0;exitPerimeter=0;entryX=0;entryY=0.5;entryDx=0;entryDy=0;entryPerimeter=0;" edge="1" parent="s2iLsqbhEoJUC6y4_RUH-2" source="jgbXGi7hfd4va_pr6LZk-4" target="s2iLsqbhEoJUC6y4_RUH-20">
          <mxGeometry width="100" relative="1" as="geometry">
            <mxPoint x="300" y="260" as="sourcePoint" />
            <mxPoint x="400" y="260" as="targetPoint" />
          </mxGeometry>
        </mxCell>
        <mxCell id="jgbXGi7hfd4va_pr6LZk-11" value="" style="edgeStyle=orthogonalEdgeStyle;html=1;endArrow=block;elbow=vertical;startArrow=block;startFill=1;endFill=1;strokeColor=#545B64;rounded=0;exitX=1;exitY=0.5;exitDx=0;exitDy=0;exitPerimeter=0;entryX=0;entryY=0.5;entryDx=0;entryDy=0;entryPerimeter=0;" edge="1" parent="s2iLsqbhEoJUC6y4_RUH-2" source="s2iLsqbhEoJUC6y4_RUH-11" target="jgbXGi7hfd4va_pr6LZk-4">
          <mxGeometry width="100" relative="1" as="geometry">
            <mxPoint x="80" y="250" as="sourcePoint" />
            <mxPoint x="180" y="250" as="targetPoint" />
          </mxGeometry>
        </mxCell>
        <mxCell id="jgbXGi7hfd4va_pr6LZk-12" value="&lt;font style=&quot;font-size: 18px&quot;&gt;Lambda&lt;/font&gt;" style="text;strokeColor=none;fillColor=none;html=1;fontSize=20;fontStyle=1;verticalAlign=middle;align=center;" vertex="1" parent="s2iLsqbhEoJUC6y4_RUH-2">
          <mxGeometry x="190.5" y="207" width="99" height="20" as="geometry" />
        </mxCell>
        <mxCell id="jgbXGi7hfd4va_pr6LZk-15" value="" style="edgeStyle=orthogonalEdgeStyle;html=1;endArrow=block;elbow=vertical;startArrow=block;startFill=1;endFill=1;strokeColor=#545B64;rounded=0;fontFamily=Helvetica;fontSize=24;fontColor=default;" edge="1" parent="s2iLsqbhEoJUC6y4_RUH-2">
          <mxGeometry width="100" relative="1" as="geometry">
            <mxPoint x="681" y="250" as="sourcePoint" />
            <mxPoint x="781" y="250" as="targetPoint" />
          </mxGeometry>
        </mxCell>
        <mxCell id="jgbXGi7hfd4va_pr6LZk-19" value="" style="edgeStyle=orthogonalEdgeStyle;html=1;endArrow=block;elbow=vertical;startArrow=none;endFill=1;strokeColor=#545B64;rounded=0;fontFamily=Helvetica;fontSize=24;fontColor=default;exitX=1;exitY=0.5;exitDx=0;exitDy=0;exitPerimeter=0;" edge="1" parent="s2iLsqbhEoJUC6y4_RUH-2" source="s2iLsqbhEoJUC6y4_RUH-16">
          <mxGeometry width="100" relative="1" as="geometry">
            <mxPoint x="411" y="30" as="sourcePoint" />
            <mxPoint x="661" y="130" as="targetPoint" />
          </mxGeometry>
        </mxCell>
        <mxCell id="s2iLsqbhEoJUC6y4_RUH-3" value="" style="points=[[0.35,0,0],[0.98,0.51,0],[1,0.71,0],[0.67,1,0],[0,0.795,0],[0,0.65,0]];verticalLabelPosition=bottom;sketch=0;html=1;verticalAlign=top;aspect=fixed;align=center;pointerEvents=1;shape=mxgraph.cisco19.user;fillColor=#005073;strokeColor=none;" parent="1" vertex="1">
          <mxGeometry y="481" width="40" height="40" as="geometry" />
        </mxCell>
        <mxCell id="s2iLsqbhEoJUC6y4_RUH-34" value="" style="endArrow=classic;startArrow=classic;html=1;rounded=0;entryX=0;entryY=0.5;entryDx=0;entryDy=0;entryPerimeter=0;" parent="1" target="s2iLsqbhEoJUC6y4_RUH-11" edge="1">
          <mxGeometry width="50" height="50" relative="1" as="geometry">
            <mxPoint x="40" y="501" as="sourcePoint" />
            <mxPoint x="450" y="480" as="targetPoint" />
          </mxGeometry>
        </mxCell>
        <mxCell id="jgbXGi7hfd4va_pr6LZk-13" value="" style="points=[[0.35,0,0],[0.98,0.51,0],[1,0.71,0],[0.67,1,0],[0,0.795,0],[0,0.65,0]];verticalLabelPosition=bottom;sketch=0;html=1;verticalAlign=top;aspect=fixed;align=center;pointerEvents=1;shape=mxgraph.cisco19.user;fillColor=#005073;strokeColor=none;" vertex="1" parent="1">
          <mxGeometry x="880" y="480" width="40" height="40" as="geometry" />
        </mxCell>
        <mxCell id="jgbXGi7hfd4va_pr6LZk-16" value="&lt;font style=&quot;font-size: 18px&quot;&gt;User&lt;/font&gt;" style="text;strokeColor=none;fillColor=none;html=1;fontSize=20;fontStyle=1;verticalAlign=middle;align=center;" vertex="1" parent="1">
          <mxGeometry x="10" y="521" width="40" height="20" as="geometry" />
        </mxCell>
        <mxCell id="jgbXGi7hfd4va_pr6LZk-17" value="&lt;font style=&quot;font-size: 18px&quot;&gt;DA/ BA&lt;/font&gt;" style="text;strokeColor=none;fillColor=none;html=1;fontSize=20;fontStyle=1;verticalAlign=middle;align=center;" vertex="1" parent="1">
          <mxGeometry x="873" y="520" width="50" height="20" as="geometry" />
        </mxCell>
      </root>
    </mxGraphModel>
  </diagram>
</mxfile>
